<mxfile host="app.diagrams.net">
  <diagram name="Email Notification Architecture" id="EmailNotifArchiV2">
    <mxGraphModel dx="1200" dy="800" grid="1" gridSize="10" guides="1" tooltips="1" connect="1" arrows="1" fold="1" page="1" pageScale="1" pageWidth="1600" pageHeight="1200" math="0" shadow="0">
      <root>
        <mxCell id="0"/>
        <mxCell id="1" parent="0"/>

        <!-- Scheduler -->
        <mxCell id="scheduler" value="SchedulerEmailNotif&#10;(cron)" style="shape=rectangle;rounded=1;fillColor=#dae8fc;strokeColor=#6c8ebf;fontSize=14;" vertex="1" parent="1">
          <mxGeometry x="60" y="140" width="190" height="70" as="geometry"/>
        </mxCell>

        <!-- Build DTO -->
        <mxCell id="dto" value="Build List&lt;NotifEmailDto&gt;" style="shape=rectangle;rounded=1;fillColor=#fff2cc;strokeColor=#d6b656;fontSize=14;" vertex="1" parent="1">
          <mxGeometry x="290" y="140" width="220" height="70" as="geometry"/>
        </mxCell>

        <!-- Decision: Referentiel routing -->
        <mxCell id="decision" value="Referential Type Routing&#10;RefEnum.parse(name).getSchedulerMailSender()" style="rhombus;whiteSpace=wrap;html=1;rounded=0;fillColor=#e1d5e7;strokeColor=#9673a6;fontSize=13;" vertex="1" parent="1">
          <mxGeometry x="560" y="135" width="240" height="80" as="geometry"/>
        </mxCell>

        <!-- Enum MailSender label -->
        <mxCell id="enumLabel" value="MailSender (Enum)" style="shape=rectangle;rounded=1;fillColor=#d5e8d4;strokeColor=#82b366;fontSize=14;" vertex="1" parent="1">
          <mxGeometry x="860" y="40" width="170" height="50" as="geometry"/>
        </mxCell>

        <!-- Enum options -->
        <mxCell id="ms1" value="SCHEDULER_RISK_LIMIT&#10;.apply(emailService, mailProperties, list)" style="shape=rectangle;rounded=1;fillColor=#d5e8d4;strokeColor=#82b366;fontSize=12;" vertex="1" parent="1">
          <mxGeometry x="840" y="120" width="320" height="60" as="geometry"/>
        </mxCell>

        <mxCell id="ms2" value="SCHEDULER_PRICING&#10;.apply(emailService, mailProperties, list)" style="shape=rectangle;rounded=1;fillColor=#d5e8d4;strokeColor=#82b366;fontSize=12;" vertex="1" parent="1">
          <mxGeometry x="840" y="210" width="320" height="60" as="geometry"/>
        </mxCell>

        <mxCell id="ms3" value="SCHEDULER_&lt;Other&gt;&#10;.apply(emailService, mailProperties, list)" style="shape=rectangle;rounded=1;fillColor=#d5e8d4;strokeColor=#82b366;fontSize=12;" vertex="1" parent="1">
          <mxGeometry x="840" y="300" width="320" height="60" as="geometry"/>
        </mxCell>

        <!-- EmailService -->
        <mxCell id="emailservice" value="EmailService" style="shape=rectangle;rounded=1;fillColor=#ffe6cc;strokeColor=#d79b00;fontSize=14;" vertex="1" parent="1">
          <mxGeometry x="1220" y="180" width="170" height="60" as="geometry"/>
        </mxCell>

        <!-- FreeMarker -->
        <mxCell id="freemarker" value="FreeMarker Template (.ftl)" style="shape=rectangle;rounded=1;fillColor=#e1d5e7;strokeColor=#9673a6;fontSize=14;" vertex="1" parent="1">
          <mxGeometry x="1460" y="120" width="210" height="60" as="geometry"/>
        </mxCell>

        <!-- JavaMailSender -->
        <mxCell id="javamail" value="JavaMailSender" style="shape=rectangle;rounded=1;fillColor=#f8cecc;strokeColor=#b85450;fontSize=14;" vertex="1" parent="1">
          <mxGeometry x="1460" y="240" width="210" height="60" as="geometry"/>
        </mxCell>

        <!-- SMTP -->
        <mxCell id="smtp" value="SMTP Server" style="shape=rectangle;rounded=1;fillColor=#cce5ff;strokeColor=#003366;fontSize=14;" vertex="1" parent="1">
          <mxGeometry x="1700" y="180" width="170" height="60" as="geometry"/>
        </mxCell>

        <!-- Recipients -->
        <mxCell id="recipients" value="Recipients (To / Cc)" style="shape=ellipse;fillColor=#f5f5f5;strokeColor=#666666;fontSize=14;" vertex="1" parent="1">
          <mxGeometry x="1900" y="180" width="180" height="60" as="geometry"/>
        </mxCell>

        <!-- Connections -->
        <mxCell id="e1" edge="1" parent="1" source="scheduler" target="dto">
          <mxGeometry relative="1" as="geometry">
            <mxPoint x="250" y="175" as="targetPoint"/>
          </mxGeometry>
        </mxCell>

        <mxCell id="e2" edge="1" parent="1" source="dto" target="decision">
          <mxGeometry relative="1" as="geometry"/>
        </mxCell>

        <!-- Decision to enum options (labeled edges) -->
        <mxCell id="e3" value="if RISK_LIMIT" edge="1" parent="1" source="decision" target="ms1" style="endArrow=block;rounded=0;labelBackgroundColor=#ffffff;">
          <mxGeometry relative="1" as="geometry"/>
        </mxCell>

        <mxCell id="e4" value="if PRICING" edge="1" parent="1" source="decision" target="ms2" style="endArrow=block;rounded=0;labelBackgroundColor=#ffffff;">
          <mxGeometry relative="1" as="geometry"/>
        </mxCell>

        <mxCell id="e5" value="if Other" edge="1" parent="1" source="decision" target="ms3" style="endArrow=block;rounded=0;labelBackgroundColor=#ffffff;">
          <mxGeometry relative="1" as="geometry"/>
        </mxCell>

        <!-- From enum.apply(...) to EmailService -->
        <mxCell id="e6" value=".apply(emailService, mailProperties, list)" edge="1" parent="1" source="ms1" target="emailservice" style="endArrow=block;rounded=0;labelBackgroundColor=#ffffff;">
          <mxGeometry relative="1" as="geometry"/>
        </mxCell>
        <mxCell id="e7" value=".apply(...)" edge="1" parent="1" source="ms2" target="emailservice" style="endArrow=block;rounded=0;labelBackgroundColor=#ffffff;">
          <mxGeometry relative="1" as="geometry"/>
        </mxCell>
        <mxCell id="e8" value=".apply(...)" edge="1" parent="1" source="ms3" target="emailservice" style="endArrow=block;rounded=0;labelBackgroundColor=#ffffff;">
          <mxGeometry relative="1" as="geometry"/>
        </mxCell>

        <!-- EmailService to FreeMarker and JavaMail -->
        <mxCell id="e9" value="render HTML" edge="1" parent="1" source="emailservice" target="freemarker" style="endArrow=block;rounded=0;labelBackgroundColor=#ffffff;">
          <mxGeometry relative="1" as="geometry"/>
        </mxCell>
        <mxCell id="e10" value="send()" edge="1" parent="1" source="emailservice" target="javamail" style="endArrow=block;rounded=0;labelBackgroundColor=#ffffff;">
          <mxGeometry relative="1" as="geometry"/>
        </mxCell>

        <!-- Chain to SMTP and Recipients -->
        <mxCell id="e11" edge="1" parent="1" source="javamail" target="smtp">
          <mxGeometry relative="1" as="geometry"/>
        </mxCell>
        <mxCell id="e12" edge="1" parent="1" source="smtp" target="recipients">
          <mxGeometry relative="1" as="geometry"/>
        </mxCell>

      </root>
    </mxGraphModel>
  </diagram>
</mxfile>
